<svg width="35" height="35" viewBox="0 0 35 35" fill="none" xmlns="http://www.w3.org/2000/svg">
<rect x="1.06437" y="1.27867" width="32.4067" height="32.4067" rx="3.08635" fill="#FE5944" fill-opacity="0.02" stroke="#1E123B" stroke-width="1.54318"/>
<path d="M24.5456 23.2244C24.7495 23.4283 24.864 23.7047 24.864 23.993C24.864 24.2813 24.7495 24.5577 24.5456 24.7616C24.3418 24.9654 24.0653 25.0799 23.7771 25.0799C23.4888 25.0799 23.2123 24.9654 23.0085 24.7616L17.2677 19.019L11.5251 24.7598C11.3213 24.9636 11.0448 25.0781 10.7565 25.0781C10.4683 25.0781 10.1918 24.9636 9.98796 24.7598C9.78412 24.5559 9.6696 24.2795 9.6696 23.9912C9.6696 23.7029 9.78412 23.4265 9.98796 23.2226L15.7306 17.4818L9.98976 11.7392C9.78592 11.5354 9.67141 11.2589 9.67141 10.9706C9.67141 10.6824 9.78592 10.4059 9.98976 10.2021C10.1936 9.99823 10.4701 9.88372 10.7583 9.88372C11.0466 9.88372 11.3231 9.99823 11.5269 10.2021L17.2677 15.9447L23.0103 10.2012C23.2141 9.99733 23.4906 9.88281 23.7789 9.88281C24.0672 9.88281 24.3436 9.99733 24.5475 10.2012C24.7513 10.405 24.8658 10.6815 24.8658 10.9697C24.8658 11.258 24.7513 11.5345 24.5475 11.7383L18.8049 17.4818L24.5456 23.2244Z" fill="#1E123B"/>
</svg>
