<svg width="20" height="19" viewBox="0 0 20 19" fill="none" xmlns="http://www.w3.org/2000/svg">
<path d="M15.9166 16.2006L11.0556 11.3396C10.6698 11.6482 10.2262 11.8926 9.72464 12.0726C9.22311 12.2526 8.68943 12.3427 8.1236 12.3427C6.72188 12.3427 5.53569 11.8571 4.56503 10.8859C3.59438 9.91472 3.10879 8.72854 3.10828 7.32733C3.10776 5.92613 3.59335 4.73994 4.56503 3.76877C5.53672 2.7976 6.72291 2.31201 8.1236 2.31201C9.52429 2.31201 10.7107 2.7976 11.6829 3.76877C12.6551 4.73994 13.1405 5.92613 13.1389 7.32733C13.1389 7.89316 13.0489 8.42685 12.8689 8.92838C12.6888 9.42991 12.4445 9.87357 12.1359 10.2594L16.9969 15.1204L15.9166 16.2006ZM8.1236 10.7995C9.08808 10.7995 9.90802 10.462 10.5834 9.78715C11.2588 9.11227 11.5963 8.29233 11.5957 7.32733C11.5952 6.36233 11.2578 5.54265 10.5834 4.86828C9.90905 4.19391 9.08911 3.85622 8.1236 3.85519C7.15808 3.85416 6.3384 4.19186 5.66455 4.86828C4.99069 5.54471 4.653 6.36439 4.65145 7.32733C4.64991 8.29027 4.98761 9.11021 5.66455 9.78715C6.34149 10.4641 7.16117 10.8015 8.1236 10.7995Z" fill="#FCFCFC"/>
</svg>
